<?xml version="1.0" standalone="no"?>
<!DOCTYPE svg PUBLIC "-//W3C//DTD SVG 1.1//EN"
"http://www.w3.org/Graphics/SVG/1.1/DTD/svg11.dtd">

<svg width="626" height="339" view_box="0 0 626 339"
xmlns="http://www.w3.org/2000/svg"
xmlns:link="http://www.w3.org/1999/xlink">\n\n<desc>Généré par Mocodo 2.3.7 le Tue, 11 Jan 2022 06:46:58</desc>

<rect id="frame" x="0" y="0" width="626" height="339" fill="#f7f7f7" stroke="none" stroke-width="0"/>

<!-- Association BELONG TO -->
<line x1="303" y1="152" x2="189" y2="279" stroke="#4393c3" stroke-width="2"/>
<text x="245" y="185.067456871" fill="#b2182b" font-family="Verdana" font-size="12">0,N</text>
<line x1="63" y1="279" x2="189" y2="279" stroke="#4393c3" stroke-width="2"/>
<text x="107" y="296.0" fill="#b2182b" font-family="Verdana" font-size="12">0,N</text>
<g id="association-BELONG TO">
	<path d="M 218 254 a 14 14 90 0 1 14 14 V 279 h -86 V 268 a 14 14 90 0 1 14 -14" fill="#92c5de" stroke="#92c5de" stroke-width="0"/>
	<path d="M 232 279.0 v 11 a 14 14 90 0 1 -14 14 H 160 a 14 14 90 0 1 -14 -14 V 279.0 H 86" fill="#d1e5f0" stroke="#d1e5f0" stroke-width="0"/>
	<rect x="146" y="254" width="86" height="50" fill="none" rx="14" stroke="#4393c3" stroke-width="2"/>
	<line x1="146" y1="279" x2="232" y2="279" stroke="#4393c3" stroke-width="1"/>
	<text x="153" y="271.7" fill="#000000" font-family="Verdana" font-size="12">BELONG TO</text>
</g>

<!-- Association IS EDITED -->
<line x1="575" y1="152" x2="575" y2="51" stroke="#4393c3" stroke-width="2"/>
<text x="580.0" y="119" fill="#b2182b" font-family="Verdana" font-size="12">0,N</text>
<line x1="303" y1="152" x2="575" y2="51" stroke="#4393c3" stroke-width="2"/>
<text x="339" y="154.585316873" fill="#b2182b" font-family="Verdana" font-size="12">1,1</text>
<g id="association-IS EDITED">
	<path d="M 601 26 a 14 14 90 0 1 14 14 V 51 h -80 V 40 a 14 14 90 0 1 14 -14" fill="#92c5de" stroke="#92c5de" stroke-width="0"/>
	<path d="M 615 51.0 v 11 a 14 14 90 0 1 -14 14 H 549 a 14 14 90 0 1 -14 -14 V 51.0 H 80" fill="#d1e5f0" stroke="#d1e5f0" stroke-width="0"/>
	<rect x="535" y="26" width="80" height="50" fill="none" rx="14" stroke="#4393c3" stroke-width="2"/>
	<line x1="535" y1="51" x2="615" y2="51" stroke="#4393c3" stroke-width="1"/>
	<text x="542" y="43.7" fill="#000000" font-family="Verdana" font-size="12">IS EDITED</text>
</g>

<!-- Association IS PLAYED ON -->
<line x1="63" y1="152" x2="189" y2="152" stroke="#4393c3" stroke-width="2"/>
<text x="106" y="169.0" fill="#b2182b" font-family="Verdana" font-size="12">0,N</text>
<line x1="303" y1="152" x2="189" y2="152" stroke="#4393c3" stroke-width="2"/>
<text x="245" y="169.0" fill="#b2182b" font-family="Verdana" font-size="12">1,N</text>
<g id="association-IS PLAYED ON">
	<path d="M 226 127 a 14 14 90 0 1 14 14 V 152 h -102 V 141 a 14 14 90 0 1 14 -14" fill="#92c5de" stroke="#92c5de" stroke-width="0"/>
	<path d="M 240 152.0 v 11 a 14 14 90 0 1 -14 14 H 152 a 14 14 90 0 1 -14 -14 V 152.0 H 102" fill="#d1e5f0" stroke="#d1e5f0" stroke-width="0"/>
	<rect x="138" y="127" width="102" height="50" fill="none" rx="14" stroke="#4393c3" stroke-width="2"/>
	<line x1="138" y1="152" x2="240" y2="152" stroke="#4393c3" stroke-width="1"/>
	<text x="145" y="144.7" fill="#000000" font-family="Verdana" font-size="12">IS PLAYED ON</text>
</g>

<!-- Association IS COMMENTED BY -->
<line x1="303" y1="279" x2="435" y2="279" stroke="#4393c3" stroke-width="2"/>
<text x="342" y="296.0" fill="#b2182b" font-family="Verdana" font-size="12">0,N</text>
<line x1="303" y1="152" x2="435" y2="279" stroke="#4393c3" stroke-width="2"/>
<text x="339" y="180.703745197" fill="#b2182b" font-family="Verdana" font-size="12">0,N</text>
<g id="association-IS COMMENTED BY">
	<path d="M 487 254 a 14 14 90 0 1 14 14 V 279 h -132 V 268 a 14 14 90 0 1 14 -14" fill="#92c5de" stroke="#92c5de" stroke-width="0"/>
	<path d="M 501 279.0 v 11 a 14 14 90 0 1 -14 14 H 383 a 14 14 90 0 1 -14 -14 V 279.0 H 132" fill="#d1e5f0" stroke="#d1e5f0" stroke-width="0"/>
	<rect x="369" y="254" width="132" height="50" fill="none" rx="14" stroke="#4393c3" stroke-width="2"/>
	<line x1="369" y1="279" x2="501" y2="279" stroke="#4393c3" stroke-width="1"/>
	<text x="376" y="271.7" fill="#000000" font-family="Verdana" font-size="12">IS COMMENTED BY</text>
</g>

<!-- Association IS PLAYED -->
<line x1="303" y1="152" x2="189" y2="51" stroke="#4393c3" stroke-width="2"/>
<text x="245" y="135.067630804" fill="#b2182b" font-family="Verdana" font-size="12">0,N</text>
<line x1="63" y1="51" x2="189" y2="51" stroke="#4393c3" stroke-width="2"/>
<text x="122" y="68.0" fill="#b2182b" font-family="Verdana" font-size="12">1,1</text>
<g id="association-IS PLAYED">
	<path d="M 215 26 a 14 14 90 0 1 14 14 V 51 h -80 V 40 a 14 14 90 0 1 14 -14" fill="#92c5de" stroke="#92c5de" stroke-width="0"/>
	<path d="M 229 51.0 v 11 a 14 14 90 0 1 -14 14 H 163 a 14 14 90 0 1 -14 -14 V 51.0 H 80" fill="#d1e5f0" stroke="#d1e5f0" stroke-width="0"/>
	<rect x="149" y="26" width="80" height="50" fill="none" rx="14" stroke="#4393c3" stroke-width="2"/>
	<line x1="149" y1="51" x2="229" y2="51" stroke="#4393c3" stroke-width="1"/>
	<text x="156" y="43.7" fill="#000000" font-family="Verdana" font-size="12">IS PLAYED</text>
</g>

<!-- Association IS DEVELOPED BY -->
<line x1="575" y1="279" x2="435" y2="152" stroke="#4393c3" stroke-width="2"/>
<text x="545.856255508" y="246" fill="#b2182b" font-family="Verdana" font-size="12">0,N</text>
<line x1="303" y1="152" x2="435" y2="152" stroke="#4393c3" stroke-width="2"/>
<text x="339" y="169.0" fill="#b2182b" font-family="Verdana" font-size="12">1,1</text>
<g id="association-IS DEVELOPED BY">
	<path d="M 484 127 a 14 14 90 0 1 14 14 V 152 h -126 V 141 a 14 14 90 0 1 14 -14" fill="#92c5de" stroke="#92c5de" stroke-width="0"/>
	<path d="M 498 152.0 v 11 a 14 14 90 0 1 -14 14 H 386 a 14 14 90 0 1 -14 -14 V 152.0 H 126" fill="#d1e5f0" stroke="#d1e5f0" stroke-width="0"/>
	<rect x="372" y="127" width="126" height="50" fill="none" rx="14" stroke="#4393c3" stroke-width="2"/>
	<line x1="372" y1="152" x2="498" y2="152" stroke="#4393c3" stroke-width="1"/>
	<text x="379" y="144.7" fill="#000000" font-family="Verdana" font-size="12">IS DEVELOPED BY</text>
</g>

<!-- Association IS PART OF -->
<line x1="435" y1="51" x2="303" y2="51" stroke="#4393c3" stroke-width="2"/>
<text x="384" y="68.0" fill="#b2182b" font-family="Verdana" font-size="12">0,N</text>
<line x1="303" y1="152" x2="303" y2="51" stroke="#4393c3" stroke-width="2"/>
<text x="308.0" y="93" fill="#b2182b" font-family="Verdana" font-size="12">1,1</text>
<g id="association-IS PART OF">
	<path d="M 331 26 a 14 14 90 0 1 14 14 V 51 h -84 V 40 a 14 14 90 0 1 14 -14" fill="#92c5de" stroke="#92c5de" stroke-width="0"/>
	<path d="M 345 51.0 v 11 a 14 14 90 0 1 -14 14 H 275 a 14 14 90 0 1 -14 -14 V 51.0 H 84" fill="#d1e5f0" stroke="#d1e5f0" stroke-width="0"/>
	<rect x="261" y="26" width="84" height="50" fill="none" rx="14" stroke="#4393c3" stroke-width="2"/>
	<line x1="261" y1="51" x2="345" y2="51" stroke="#4393c3" stroke-width="1"/>
	<text x="268" y="43.7" fill="#000000" font-family="Verdana" font-size="12">IS PART OF</text>
</g>

<!-- Entity CATEGORY -->
<g id="entity-CATEGORY">
	<g id="frame-CATEGORY">
		<rect x="24" y="254" width="78" height="25" fill="#f4a582" stroke="#f4a582" stroke-width="0"/>
		<rect x="24" y="279.0" width="78" height="25" fill="#fddbc7" stroke="#fddbc7" stroke-width="0"/>
		<rect x="24" y="254" width="78" height="50" fill="none" stroke="#d6604d" stroke-width="2"/>
		<line x1="24" y1="279" x2="102" y2="279" stroke="#d6604d" stroke-width="1"/>
	</g>
	<text x="29" y="271.7" fill="#000000" font-family="Verdana" font-size="12">CATEGORY</text>
	<text x="29" y="296.8" fill="#000000" font-family="Verdana" font-size="12">name</text>
	<line x1="29" y1="299" x2="64" y2="299" stroke="#000000" stroke-width="1"/>
</g>

<!-- Entity PLATFORM -->
<g id="entity-PLATFORM">
	<g id="frame-PLATFORM">
		<rect x="25" y="127" width="76" height="25" fill="#f4a582" stroke="#f4a582" stroke-width="0"/>
		<rect x="25" y="152.0" width="76" height="25" fill="#fddbc7" stroke="#fddbc7" stroke-width="0"/>
		<rect x="25" y="127" width="76" height="50" fill="none" stroke="#d6604d" stroke-width="2"/>
		<line x1="25" y1="152" x2="101" y2="152" stroke="#d6604d" stroke-width="1"/>
	</g>
	<text x="30" y="144.7" fill="#000000" font-family="Verdana" font-size="12">PLATFORM</text>
	<text x="30" y="169.8" fill="#000000" font-family="Verdana" font-size="12">name</text>
	<line x1="30" y1="172" x2="65" y2="172" stroke="#000000" stroke-width="1"/>
</g>

<!-- Entity SERIE -->
<g id="entity-SERIE">
	<g id="frame-SERIE">
		<rect x="411" y="26" width="48" height="25" fill="#f4a582" stroke="#f4a582" stroke-width="0"/>
		<rect x="411" y="51.0" width="48" height="25" fill="#fddbc7" stroke="#fddbc7" stroke-width="0"/>
		<rect x="411" y="26" width="48" height="50" fill="none" stroke="#d6604d" stroke-width="2"/>
		<line x1="411" y1="51" x2="459" y2="51" stroke="#d6604d" stroke-width="1"/>
	</g>
	<text x="416" y="43.7" fill="#000000" font-family="Verdana" font-size="12">SERIE</text>
	<text x="416" y="68.8" fill="#000000" font-family="Verdana" font-size="12">name</text>
	<line x1="416" y1="71" x2="451" y2="71" stroke="#000000" stroke-width="1"/>
</g>

<!-- Entity WALKTHROUGH -->
<g id="entity-WALKTHROUGH">
	<g id="frame-WALKTHROUGH">
		<rect x="9" y="9" width="108" height="25" fill="#f4a582" stroke="#f4a582" stroke-width="0"/>
		<rect x="9" y="34.0" width="108" height="59" fill="#fddbc7" stroke="#fddbc7" stroke-width="0"/>
		<rect x="9" y="9" width="108" height="84" fill="none" stroke="#d6604d" stroke-width="2"/>
		<line x1="9" y1="34" x2="117" y2="34" stroke="#d6604d" stroke-width="1"/>
	</g>
	<text x="14" y="26.7" fill="#000000" font-family="Verdana" font-size="12">WALKTHROUGH</text>
	<text x="14" y="51.8" fill="#000000" font-family="Verdana" font-size="12">name</text>
	<line x1="14" y1="54" x2="49" y2="54" stroke="#000000" stroke-width="1"/>
	<text x="14" y="68.8" fill="#000000" font-family="Verdana" font-size="12">link</text>
	<text x="14" y="85.8" fill="#000000" font-family="Verdana" font-size="12">part</text>
</g>

<!-- Entity GAME -->
<g id="entity-GAME">
	<g id="frame-GAME">
		<rect x="272" y="101" width="62" height="25" fill="#f4a582" stroke="#f4a582" stroke-width="0"/>
		<rect x="272" y="126.0" width="62" height="77" fill="#fddbc7" stroke="#fddbc7" stroke-width="0"/>
		<rect x="272" y="101" width="62" height="102" fill="none" stroke="#d6604d" stroke-width="2"/>
		<line x1="272" y1="126" x2="334" y2="126" stroke="#d6604d" stroke-width="1"/>
	</g>
	<text x="285" y="118.7" fill="#000000" font-family="Verdana" font-size="12">GAME</text>
	<text x="277" y="143.7" fill="#000000" font-family="Verdana" font-size="12">name</text>
	<line x1="277" y1="146" x2="312" y2="146" stroke="#000000" stroke-width="1"/>
	<text x="277" y="160.8" fill="#000000" font-family="Verdana" font-size="12">synopsis</text>
	<text x="277" y="177.8" fill="#000000" font-family="Verdana" font-size="12">trailer</text>
	<text x="277" y="194.8" fill="#000000" font-family="Verdana" font-size="12">note</text>
</g>

<!-- Entity EDITOR -->
<g id="entity-EDITOR">
	<g id="frame-EDITOR">
		<rect x="546" y="127" width="58" height="25" fill="#f4a582" stroke="#f4a582" stroke-width="0"/>
		<rect x="546" y="152.0" width="58" height="25" fill="#fddbc7" stroke="#fddbc7" stroke-width="0"/>
		<rect x="546" y="127" width="58" height="50" fill="none" stroke="#d6604d" stroke-width="2"/>
		<line x1="546" y1="152" x2="604" y2="152" stroke="#d6604d" stroke-width="1"/>
	</g>
	<text x="551" y="144.7" fill="#000000" font-family="Verdana" font-size="12">EDITOR</text>
	<text x="551" y="169.8" fill="#000000" font-family="Verdana" font-size="12">name</text>
	<line x1="551" y1="172" x2="586" y2="172" stroke="#000000" stroke-width="1"/>
</g>

<!-- Entity DEVELOPER -->
<g id="entity-DEVELOPER">
	<g id="frame-DEVELOPER">
		<rect x="533" y="254" width="84" height="25" fill="#f4a582" stroke="#f4a582" stroke-width="0"/>
		<rect x="533" y="279.0" width="84" height="25" fill="#fddbc7" stroke="#fddbc7" stroke-width="0"/>
		<rect x="533" y="254" width="84" height="50" fill="none" stroke="#d6604d" stroke-width="2"/>
		<line x1="533" y1="279" x2="617" y2="279" stroke="#d6604d" stroke-width="1"/>
	</g>
	<text x="538" y="271.7" fill="#000000" font-family="Verdana" font-size="12">DEVELOPER</text>
	<text x="538" y="296.8" fill="#000000" font-family="Verdana" font-size="12">name</text>
	<line x1="538" y1="299" x2="573" y2="299" stroke="#000000" stroke-width="1"/>
</g>

<!-- Entity USER -->
<g id="entity-USER">
	<g id="frame-USER">
		<rect x="269" y="228" width="68" height="25" fill="#f4a582" stroke="#f4a582" stroke-width="0"/>
		<rect x="269" y="253.0" width="68" height="77" fill="#fddbc7" stroke="#fddbc7" stroke-width="0"/>
		<rect x="269" y="228" width="68" height="102" fill="none" stroke="#d6604d" stroke-width="2"/>
		<line x1="269" y1="253" x2="337" y2="253" stroke="#d6604d" stroke-width="1"/>
	</g>
	<text x="286" y="245.7" fill="#000000" font-family="Verdana" font-size="12">USER</text>
	<text x="274" y="270.7" fill="#000000" font-family="Verdana" font-size="12">name</text>
	<line x1="274" y1="273" x2="309" y2="273" stroke="#000000" stroke-width="1"/>
	<text x="274" y="287.8" fill="#000000" font-family="Verdana" font-size="12">email</text>
	<text x="274" y="304.8" fill="#000000" font-family="Verdana" font-size="12">password</text>
	<text x="274" y="321.8" fill="#000000" font-family="Verdana" font-size="12">profilePic</text>
</g>
</svg>